<svg width="20" height="20" viewBox="0 0 20 20" fill="none" xmlns="http://www.w3.org/2000/svg">
<path d="M2 9.44326C2 6.48868 2 5.011 2.91826 4.09352C3.83652 3.17605 5.31342 3.17526 8.268 3.17526H11.402C14.3566 3.17526 15.8343 3.17526 16.7517 4.09352C17.6692 5.01179 17.67 6.48868 17.67 9.44326V11.0103C17.67 13.9648 17.67 15.4425 16.7517 16.36C15.8335 17.2775 14.3566 17.2783 11.402 17.2783H8.268C5.31342 17.2783 3.83574 17.2783 2.91826 16.36C2.00078 15.4417 2 13.9648 2 11.0103V9.44326Z" stroke="#999999" stroke-width="1.5"/>
<path d="M5.9176 3.17527V2.00002M13.7526 3.17527V2.00002M2.39185 7.09277H17.2783" stroke="#999999" stroke-width="1.5" stroke-linecap="round"/>
<path d="M5.91724 12.8271C6.05873 12.8271 6.19512 12.8833 6.29517 12.9833C6.39516 13.0834 6.45142 13.2198 6.45142 13.3613C6.45129 13.5025 6.39504 13.6383 6.29517 13.7382C6.19512 13.8383 6.05873 13.8945 5.91724 13.8945C5.77589 13.8944 5.64026 13.8381 5.54028 13.7382C5.44034 13.6383 5.38416 13.5026 5.38403 13.3613C5.38403 13.2198 5.44023 13.0834 5.54028 12.9833C5.64025 12.8834 5.7759 12.8272 5.91724 12.8271ZM9.83521 12.8271C9.97656 12.8271 10.1122 12.8834 10.2122 12.9833C10.3122 13.0834 10.3684 13.2198 10.3684 13.3613C10.3683 13.5026 10.3121 13.6383 10.2122 13.7382C10.1122 13.8381 9.97657 13.8944 9.83521 13.8945C9.69386 13.8945 9.55827 13.8381 9.45825 13.7382C9.35831 13.6383 9.30213 13.5026 9.302 13.3613C9.302 13.2198 9.3582 13.0834 9.45825 12.9833C9.55827 12.8835 9.69387 12.8271 9.83521 12.8271ZM13.7522 12.8271C13.8937 12.8271 14.0301 12.8833 14.1301 12.9833C14.2301 13.0834 14.2864 13.2198 14.2864 13.3613C14.2863 13.5025 14.23 13.6383 14.1301 13.7382C14.0301 13.8383 13.8937 13.8945 13.7522 13.8945C13.6109 13.8944 13.4752 13.8381 13.3752 13.7382C13.2753 13.6383 13.2191 13.5026 13.219 13.3613C13.219 13.2198 13.2752 13.0834 13.3752 12.9833C13.4752 12.8834 13.6109 12.8272 13.7522 12.8271ZM5.91724 9.69328C6.05873 9.69328 6.19512 9.74948 6.29517 9.84953C6.39503 9.9495 6.45134 10.0852 6.45142 10.2265C6.45142 10.368 6.39522 10.5044 6.29517 10.6044C6.19512 10.7045 6.05873 10.7607 5.91724 10.7607C5.77594 10.7606 5.64025 10.7043 5.54028 10.6044C5.44023 10.5044 5.38403 10.368 5.38403 10.2265C5.38411 10.0851 5.4403 9.94951 5.54028 9.84953C5.64026 9.74955 5.77585 9.69336 5.91724 9.69328ZM9.83521 9.69328C9.97661 9.69333 10.1122 9.74956 10.2122 9.84953C10.3121 9.94951 10.3683 10.0851 10.3684 10.2265C10.3684 10.368 10.3122 10.5044 10.2122 10.6044C10.1122 10.7043 9.97652 10.7606 9.83521 10.7607C9.69391 10.7607 9.55826 10.7042 9.45825 10.6044C9.3582 10.5044 9.302 10.368 9.302 10.2265C9.30208 10.0851 9.35827 9.94951 9.45825 9.84953C9.55828 9.74963 9.69382 9.69328 9.83521 9.69328ZM13.7522 9.69328C13.8937 9.69328 14.0301 9.74948 14.1301 9.84953C14.23 9.9495 14.2863 10.0852 14.2864 10.2265C14.2864 10.368 14.2302 10.5044 14.1301 10.6044C14.0301 10.7045 13.8937 10.7607 13.7522 10.7607C13.6109 10.7606 13.4752 10.7043 13.3752 10.6044C13.2752 10.5044 13.219 10.368 13.219 10.2265C13.2191 10.0851 13.2753 9.94951 13.3752 9.84953C13.4752 9.74956 13.6108 9.69337 13.7522 9.69328Z" fill="#999999" stroke="#999999" stroke-width="0.5"/>
</svg>
