<svg width="20" height="20" viewBox="0 0 20 20" fill="none" xmlns="http://www.w3.org/2000/svg">
<path d="M2 10C2 11.0506 2.20693 12.0909 2.60896 13.0615C3.011 14.0321 3.60028 14.914 4.34315 15.6569C5.08601 16.3997 5.96793 16.989 6.93853 17.391C7.90914 17.7931 8.94943 18 10 18C11.0506 18 12.0909 17.7931 13.0615 17.391C14.0321 16.989 14.914 16.3997 15.6569 15.6569C16.3997 14.914 16.989 14.0321 17.391 13.0615C17.7931 12.0909 18 11.0506 18 10C18 7.87827 17.1571 5.84344 15.6569 4.34315C14.1566 2.84285 12.1217 2 10 2C7.87827 2 5.84344 2.84285 4.34315 4.34315C2.84285 5.84344 2 7.87827 2 10Z" stroke="#999999" stroke-width="1.6" stroke-linecap="round" stroke-linejoin="round"/>
<path d="M10 5.55553V9.99997L12.6667 12.6666" stroke="#999999" stroke-width="1.6" stroke-linecap="round" stroke-linejoin="round"/>
</svg>
