<svg width="19" height="17" viewBox="0 0 19 17" fill="none" xmlns="http://www.w3.org/2000/svg">
<path d="M0.75 2.41667C0.75 1.97464 0.925595 1.55072 1.23816 1.23816C1.55072 0.925595 1.97464 0.75 2.41667 0.75H7.41667V15.75H2.41667C1.97464 15.75 1.55072 15.5744 1.23816 15.2618C0.925595 14.9493 0.75 14.5254 0.75 14.0833V2.41667ZM10.75 0.75H15.75C16.192 0.75 16.6159 0.925595 16.9285 1.23816C17.2411 1.55072 17.4167 1.97464 17.4167 2.41667V6.58333H10.75V0.75ZM10.75 9.91667H17.4167V14.0833C17.4167 14.5254 17.2411 14.9493 16.9285 15.2618C16.6159 15.5744 16.192 15.75 15.75 15.75H10.75V9.91667Z" stroke="#999999" stroke-width="1.5" stroke-linecap="round" stroke-linejoin="round"/>
</svg>
