<svg width="18" height="18" viewBox="0 0 18 18" fill="none" xmlns="http://www.w3.org/2000/svg">
<path d="M8.99991 16.6841C13.1962 16.6841 16.684 13.2036 16.684 8.99999C16.684 4.80374 13.1884 1.31592 8.9922 1.31592C4.78888 1.31592 1.31616 4.80374 1.31616 8.99999C1.31616 13.2036 4.79627 16.6841 8.99991 16.6841ZM9.00023 15.4035C5.44395 15.4035 2.60348 12.5556 2.60348 8.99999C2.60348 5.45142 5.43623 2.59649 8.9922 2.59649C12.5404 2.59649 15.3954 5.45174 15.4031 8.99999C15.4105 12.556 12.5478 15.4035 8.99959 15.4035M8.9922 10.3635C9.35348 10.3635 9.55695 10.16 9.56434 9.76853L9.67748 5.79085C9.6852 5.40642 9.3837 5.12035 8.98448 5.12035C8.57756 5.12035 8.29148 5.39903 8.29888 5.78313L8.39691 9.76853C8.40431 10.1526 8.61548 10.3635 8.9922 10.3635ZM8.9922 12.8118C9.4213 12.8118 9.80541 12.4653 9.80541 12.0285C9.80541 11.584 9.42902 11.2448 8.9922 11.2448C8.54766 11.2448 8.17834 11.5913 8.17834 12.0285C8.17834 12.4579 8.55506 12.8118 8.9922 12.8118Z" fill="#666666"/>
</svg>
