<svg width="16" height="16" viewBox="0 0 16 16" fill="none" xmlns="http://www.w3.org/2000/svg">
<path d="M9.33333 5.33332V3.99999C9.33333 3.64637 9.19286 3.30723 8.94281 3.05718C8.69276 2.80713 8.35362 2.66666 8 2.66666H3.33333C2.97971 2.66666 2.64057 2.80713 2.39052 3.05718C2.14048 3.30723 2 3.64637 2 3.99999V12C2 12.3536 2.14048 12.6927 2.39052 12.9428C2.64057 13.1928 2.97971 13.3333 3.33333 13.3333H8C8.35362 13.3333 8.69276 13.1928 8.94281 12.9428C9.19286 12.6927 9.33333 12.3536 9.33333 12V10.6667" stroke="#999999" stroke-linecap="round" stroke-linejoin="round"/>
<path d="M6 8H14M14 8L12 6M14 8L12 10" stroke="#999999" stroke-linecap="round" stroke-linejoin="round"/>
</svg>
