<svg width="20" height="20" viewBox="0 0 20 20" fill="none" xmlns="http://www.w3.org/2000/svg">
<path d="M4.58325 6.24958L2.08325 6.66625C2.76242 3.53541 4.73492 2.5025 6.66659 2.49958C7.91534 2.4975 9.14659 2.92708 9.99992 3.33291C10.8533 2.92708 12.0833 2.49958 13.3333 2.49958C15.2545 2.49958 17.2374 3.53541 17.9166 6.66625L15.4166 6.24958C15.6495 7.12458 16.1616 8.66291 15.4166 9.99958C14.1749 8.88583 11.3041 7.20416 9.99992 6.24958C8.69575 7.20416 5.82492 8.88583 4.58325 9.99958C3.83825 8.66333 4.35034 7.12458 4.58325 6.24958Z" stroke="#999999" stroke-width="1.5" stroke-linecap="round" stroke-linejoin="round"/>
<path d="M9.99995 6.25C9.68536 7.87042 9.24536 11.8887 9.99995 15" stroke="#999999" stroke-width="1.5" stroke-linecap="round" stroke-linejoin="round"/>
<path d="M5 17.5H15C13.0054 15.5896 12.0833 15.0021 10 15C7.91667 14.9979 5.78833 16.4092 5 17.5Z" stroke="#999999" stroke-width="1.5" stroke-linecap="round" stroke-linejoin="round"/>
</svg>
